<svg xmlns="http://www.w3.org/2000/svg" viewBox="0 0 200 200" width="200" height="200">
  <defs>
    <linearGradient id="leafGrad" x1="0%" y1="0%" x2="100%" y2="100%">
      <stop offset="0%" style="stop-color:#2D6A4F;stop-opacity:1" />
      <stop offset="100%" style="stop-color:#6A0572;stop-opacity:1" />
    </linearGradient>
    <linearGradient id="eyeGrad" x1="0%" y1="0%" x2="100%" y2="100%">
      <stop offset="0%" style="stop-color:#40916C;stop-opacity:1" />
      <stop offset="100%" style="stop-color:#8E24AA;stop-opacity:1" />
    </linearGradient>
  </defs>

  <!-- Feuille de vigne stylisée formant un œil -->
  <!-- Corps de la feuille (forme ovale penchée = paupières de l'œil) -->
  <ellipse cx="100" cy="95" rx="75" ry="45" fill="none" stroke="url(#leafGrad)" stroke-width="6"
    transform="rotate(-15, 100, 95)" />

  <!-- Iris/pupille centrale -->
  <circle cx="100" cy="95" r="22" fill="url(#eyeGrad)" />
  <circle cx="100" cy="95" r="10" fill="#1B4332" />
  <circle cx="107" cy="88" r="4" fill="white" opacity="0.8" />

  <!-- Lobes de la feuille de vigne (3 lobes comme une vraie feuille) -->
  <!-- Lobe haut gauche -->
  <path d="M 55 70 Q 40 45 60 35 Q 70 55 55 70 Z" fill="url(#leafGrad)" opacity="0.85" />
  <!-- Lobe haut droit -->
  <path d="M 145 70 Q 160 45 140 35 Q 130 55 145 70 Z" fill="url(#leafGrad)" opacity="0.85" />
  <!-- Lobe haut centre -->
  <path d="M 100 50 Q 100 25 100 20 Q 108 35 100 50 Z" fill="url(#leafGrad)" opacity="0.9" />

  <!-- Pétiole (queue de la feuille) = pupille / tige centrale -->
  <line x1="100" y1="140" x2="100" y2="170" stroke="url(#leafGrad)" stroke-width="5" stroke-linecap="round" />

  <!-- Vrilles (spirales décoratives) -->
  <path d="M 100 165 Q 115 160 120 150 Q 125 140 115 138" fill="none" stroke="url(#eyeGrad)" stroke-width="2.5" stroke-linecap="round" />
  <path d="M 100 165 Q 85 160 80 150 Q 75 140 85 138" fill="none" stroke="url(#eyeGrad)" stroke-width="2.5" stroke-linecap="round" />

  <!-- Nervures de la feuille -->
  <line x1="100" y1="95" x2="60" y2="70" stroke="url(#leafGrad)" stroke-width="1.5" opacity="0.4" stroke-linecap="round" />
  <line x1="100" y1="95" x2="140" y2="70" stroke="url(#leafGrad)" stroke-width="1.5" opacity="0.4" stroke-linecap="round" />
</svg>
